<?xml version="1.0" standalone="no"?>
<!DOCTYPE svg PUBLIC "-//W3C//DTD SVG 1.1//EN" "http://www.w3.org/Graphics/SVG/1.1/DTD/svg11.dtd" >
<svg xmlns="http://www.w3.org/2000/svg" xmlns:xlink="http://www.w3.org/1999/xlink" version="1.1">
<metadata>
Created by FontForge 20190801 at Sun Feb 14 03:27:06 2016
 By Jimmy Wärting
Copyright 2016 Adobe Systems Incorporated. All rights reserved.
</metadata>
<defs>
<font id="Ultra" horiz-adv-x="833" >
  <font-face 
    font-family="Ultra"
    font-weight="400"
    font-stretch="normal"
    units-per-em="1000"
    panose-1="2 0 0 0 0 0 0 0 0 0"
    ascent="750"
    descent="-250"
    x-height="492"
    cap-height="492"
    bbox="-0.5625 -49 330 493"
    underline-thickness="50"
    underline-position="-100"
    unicode-range="U+0020-007A"
  />
<missing-glyph horiz-adv-x="200" 
 />
    <glyph glyph-name=".notdef" horiz-adv-x="200" 
 />
    <glyph glyph-name=".null" horiz-adv-x="0" 
 />
    <glyph glyph-name="nonmarkingreturn" horiz-adv-x="333" 
 />
    <glyph glyph-name="space" unicode=" " horiz-adv-x="200" 
 />
    <glyph glyph-name="zero" unicode="0" 
d="M243 381q11 -2 11 -13v-244q0 -51 -35.5 -87.5t-84.5 -36.5h-15q-49 0 -84 36.5t-35 87.5v244q0 51 35 87.5t84 36.5h15q52 0 88 -39q8 -10 -1 -19q-11 -9 -19 1q-28 31 -68 31h-15q-38 0 -65 -28.5t-27 -69.5v-244q0 -40 27 -68.5t65 -28.5h15q39 0 66 28t27 69v165
l-74 -212q-4 -14 -17 -8q-12 3 -8 17l100 286q4 11 15 9z" />
    <glyph glyph-name="one" unicode="1" 
d="M139 0q-14 0 -14 13v355q0 41 -27 69.5t-65 28.5h-20q-13 0 -13 13t13 13h20q49 0 84 -36.5t35 -87.5v-355q0 -13 -13 -13z" />
    <glyph glyph-name="two" unicode="2" 
d="M246 13q0 -13 -13 -13h-220q-13 0 -13 13v117q-2 51 32 89t83 40h15q38 1 64.5 31t24.5 71v10q-2 42 -31 70q-25 24 -65 24h-15q-52 0 -79 -52q-6 -12 -17 -6q-13 7 -6 18q15 30 42 48.5t59 18.5h15q50 0 84 -31q37 -35 40 -89v-10q2 -52 -32 -90t-83 -39l-15 -1
q-38 -2 -64 -31.5t-25 -69.5v-104h206q13 0 13 -14z" />
    <glyph glyph-name="three" unicode="3" 
d="M134 0h-15q-43 0 -76.5 29t-40.5 73q-2 14 -2 22v16q0 14 13 14q14 0 14 -14v-16q0 -12 1 -17q6 -35 31.5 -57.5t59.5 -22.5h15q39 0 66 28t27 69v4q0 41 -27 69.5t-66 28.5h-45q-13 0 -13 13v55q0 14 13 14h45q39 0 66 18t27 53v3q0 35 -27 59.5t-66 24.5h-15
q-55 0 -82 -45q-10 -17 -10 -39v-9q0 -14 -14 -14q-13 0 -13 14v9q0 27 14 52q34 58 105 58h15q50 0 85 -32t35 -78v-3q0 -43 -33.5 -70.5t-86.5 -27.5h-31v-29h31q50 0 85 -36t35 -88v-4q0 -51 -35.5 -87.5t-84.5 -36.5z" />
    <glyph glyph-name="four" unicode="4" 
d="M164 465l-137 -223v-28h130q13 0 13 -14v-173h35v219q0 13 13 13h48q13 0 13 -13t-13 -13h-35v-219q0 -13 -13 -13l-61 -1q-6 0 -10 4t-4 9v174h-130q-13 0 -13 13v46q0 3 2 7l143 232q5 7 12 7h51h1q13 0 13 -13t-13 -13z" />
    <glyph glyph-name="five" unicode="5" 
d="M228 465h-176v-205h59h15q50 -2 83.5 -40t32.5 -90l-1 -10q-2 -54 -40 -89q-34 -31 -79 -31h-4l-16 1q-31 1 -58.5 19t-42.5 47q-5 11 6 18q12 5 18 -6q25 -49 78 -52h16q37 -2 64 24q30 27 32 70v10q2 41 -24.5 71t-64.5 31h-15h-72q-13 0 -13 14v232q0 13 13 13h189
q14 0 14 -13q0 -14 -14 -14z" />
    <glyph glyph-name="six" unicode="6" 
d="M27 368v-168v-76q0 -40 27 -68.5t65 -28.5h15q39 0 66 28t27 69v76q0 41 -27 69.5t-66 28.5h-15q-22 0 -41 -10q-11 -6 -18 6q-6 11 6 18q25 13 53 13h15q50 0 85 -36.5t35 -88.5v-76q0 -51 -35.5 -87.5t-84.5 -36.5h-15q-49 0 -84 36.5t-35 87.5v76v168q0 51 35 87.5
t84 36.5h15q49 0 84.5 -36.5t35.5 -87.5q0 -14 -14 -14q-13 0 -13 14q0 41 -27 69.5t-66 28.5h-15q-38 0 -65 -28.5t-27 -69.5z" />
    <glyph glyph-name="seven" unicode="7" 
d="M240 492q14 0 14 -13v-15q0 -2 -2 -6l-103 -205v-226h31v219q0 14 14 14h39q13 0 13 -14q0 -13 -13 -13h-26v-220q0 -13 -13 -13h-58v0q-14 0 -14 13v243v2q0 1 1 1v1v1l1 1l102 204h-213q-13 0 -13 13t13 13h227z" />
    <glyph glyph-name="eight" unicode="8" 
d="M135 260q49 0 84 -36.5t35 -88.5v-11q0 -51 -35 -87.5t-84 -36.5h-16q-49 0 -84 36.5t-35 87.5v11q0 50 32 85q8 10 19 1q9 -9 1 -19q-25 -28 -25 -67v-11q0 -40 27 -68.5t65 -28.5h16q38 0 65 28.5t27 68.5v11q0 40 -26.5 68.5t-64.5 29.5h-2h-15q-49 0 -84 36.5
t-35 87.5v11q0 51 35 87.5t84 36.5h15q49 0 84.5 -36.5t35.5 -87.5v-11q0 -44 -28 -80q-9 -9 -19 -2q-9 8 -2 19q22 28 22 63v11q0 41 -27 69.5t-66 28.5h-15q-38 0 -65 -28.5t-27 -69.5v-11q0 -40 26 -68t64 -29h2h16z" />
    <glyph glyph-name="nine" unicode="9" 
d="M134 492q49 0 84.5 -36.5t35.5 -87.5v-76v-168q0 -51 -35.5 -87.5t-84.5 -36.5h-15q-49 0 -84 36.5t-35 87.5q0 14 13 14q14 0 14 -14q0 -40 27 -68.5t65 -28.5h15q39 0 66 28t27 69v168v76q0 41 -27 69.5t-66 28.5h-15q-38 0 -65 -28.5t-27 -69.5v-76q0 -41 27 -69.5
t65 -28.5h15q25 0 46 12q11 7 18 -4q6 -11 -5 -19q-29 -16 -59 -16h-15q-49 0 -84 36.5t-35 88.5v76q0 51 35 87.5t84 36.5h15z" />
    <glyph glyph-name="A" unicode="A" 
d="M10 0q-12 3 -10 16l30 134q2 10 13 10h100l-4 27h-86q-5 0 -10 5t-3 11l50 278q2 11 13 11h60q11 0 13 -11l84 -465q2 -14 -11 -16t-15 11l-82 454h-38l-45 -251h82q11 0 13 -11l8 -54q2 -6 -3 -11q-3 -5 -10 -5h-106l-27 -123q-2 -10 -13 -10h-3z" />
    <glyph glyph-name="B" unicode="B" 
d="M13 302q-13 0 -13 13v164q0 13 13 13h105q43 0 73.5 -32t30.5 -77v-25q0 -45 -28 -74.5t-75 -34.5l-91 -7v-215h91h15q38 0 56 28.5t18 68.5v29q0 40 -25 68q-9 10 0 19q11 9 19 -1q33 -36 33 -86v-29q0 -56 -27.5 -90t-73.5 -34h-15h-105q-13 0 -13 13v241v1v1v1
q1 1 1 2v1q1 0 1 1t1 1v1q1 0 1 1q1 0 1 1h1q1 1 2 1h1l1 1h1h1l103 9q37 4 58 26t21 56v25q0 35 -22.5 59t-54.5 24h-91v-151q0 -13 -14 -13z" />
    <glyph glyph-name="C" unicode="C" 
d="M119 0q-49 0 -84 36.5t-35 87.5v244q0 51 35 87.5t84 36.5h15q49 0 84.5 -36.5t35.5 -87.5q0 -13 -14 -13q-13 0 -13 13q0 41 -27 69.5t-66 28.5h-15q-38 0 -65 -28.5t-27 -69.5v-244q0 -40 27 -68.5t65 -28.5h15q39 0 66 28t27 69q0 14 13 14q14 0 14 -14
q0 -51 -35.5 -87.5t-84.5 -36.5h-15z" />
    <glyph glyph-name="D" unicode="D" 
d="M13 0q-13 0 -13 13v466q0 13 13 13q14 0 14 -13v-452h107q39 0 66 28t27 69v244q0 41 -27 69.5t-66 28.5h-54q-14 0 -14 14q0 13 14 13l55 -1q49 0 84 -36.5t35 -87.5v-244q0 -51 -35.5 -87.5t-84.5 -36.5h-121z" />
    <glyph glyph-name="E" unicode="E" 
d="M13 256q-13 0 -13 14v209q0 13 13 13h227q14 0 14 -13t-14 -13h-213v-183h130q13 0 13 -13v-58q0 -13 -13 -13h-129v-172h212q14 0 14 -14q0 -13 -14 -13h-226q-13 0 -13 13v199q0 14 13 14h129v30h-130z" />
    <glyph glyph-name="F" unicode="F" 
d="M13 259q-13 0 -13 13v207q0 13 13 13h227q14 0 14 -13t-14 -13h-213v-180h130q13 0 13 -14v-60q0 -13 -13 -13h-129v-186q0 -13 -14 -13q-13 0 -13 13v199q0 14 13 14h129v33h-130z" />
    <glyph glyph-name="G" unicode="G" 
d="M119 0q-49 0 -84 36.5t-35 87.5v244q0 51 35 87.5t84 36.5h15q49 0 84.5 -36.5t35.5 -87.5q0 -13 -14 -13q-13 0 -13 13q0 41 -27 69.5t-66 28.5h-15q-38 0 -65 -28.5t-27 -69.5v-244q0 -40 27 -68.5t65 -28.5h15q39 0 66 28t27 69v73h-70q-14 0 -14 13v57q0 14 14 14h83
q14 0 14 -14q0 -13 -14 -13h-70v-30h70q14 0 14 -14v-86q0 -51 -35.5 -87.5t-84.5 -36.5h-15z" />
    <glyph glyph-name="H" unicode="H" 
d="M177 492h63q14 0 14 -13v-466q0 -13 -14 -13q-13 0 -13 13v453h-36v-238q0 -13 -14 -13h-87v-202q0 -13 -14 -13h-63q-13 0 -13 13v466q0 13 13 13q14 0 14 -13v-452h36v201q0 13 13 13h88v238q0 13 13 13z" />
    <glyph glyph-name="I" unicode="I" horiz-adv-x="627" 
d="M27 13q0 -13 -14 -13q-13 0 -13 13v466q0 13 13 13q14 0 14 -13v-466z" />
    <glyph glyph-name="J" unicode="J" 
d="M125 479q0 13 14 13q13 0 13 -13v-355q0 -51 -35 -87.5t-84 -36.5h-20q-13 0 -13 13q0 14 13 14h20q38 0 65 28.5t27 68.5v355z" />
    <glyph glyph-name="K" unicode="K" 
d="M196 483q3 9 13 9h63q7 0 10 -5q5 -6 2 -12l-97 -274l78 -182q5 -13 -7 -18q-1 -1 -5 -1q-9 0 -12 8l-80 187q-3 4 -1 10l93 261h-35l-160 -457q-4 -9 -13 -9h-32q-13 0 -13 13v466q0 13 13 13q14 0 14 -13v-452h9z" />
    <glyph glyph-name="L" unicode="L" 
d="M13 0q-13 0 -13 13v466q0 13 13 13q14 0 14 -13v-452h182q13 0 13 -14q0 -13 -13 -13h-196z" />
    <glyph glyph-name="M" unicode="M" 
d="M13 0q-13 0 -13 13v466q0 13 13 13h25q10 0 12 -10l115 -444l110 444q3 10 13 10h28q14 0 14 -13v-466q0 -13 -14 -13q-13 0 -13 13v453h-4l-113 -456q-3 -10 -13 -10h-15q-10 0 -13 10l-118 456v-453q0 -13 -14 -13z" />
    <glyph glyph-name="N" unicode="N" 
d="M227 27v452q0 13 13 13q14 0 14 -13v-466q0 -13 -14 -13h-31q-9 0 -13 9l-160 457h-9v-453q0 -13 -14 -13q-13 0 -13 13v466q0 13 13 13h32q10 0 13 -9l160 -456h9z" />
    <glyph glyph-name="O" unicode="O" 
d="M227 368q0 13 13 13q14 0 14 -13v-244q0 -51 -35.5 -87.5t-84.5 -36.5h-15q-49 0 -84 36.5t-35 87.5v244q0 51 35 87.5t84 36.5h15q52 0 88 -39q8 -10 -1 -19q-11 -9 -19 1q-28 31 -68 31h-15q-38 0 -65 -28.5t-27 -69.5v-244q0 -40 27 -68.5t65 -28.5h15q39 0 66 28
t27 69v244z" />
    <glyph glyph-name="P" unicode="P" 
d="M254 368v-56q0 -52 -35 -88.5t-85 -36.5h-45q-13 0 -13 13q0 14 13 14h45q39 0 66 28.5t27 69.5v56q0 41 -27 69.5t-66 28.5h-15h-92v-453q0 -13 -14 -13q-13 0 -13 13v466q0 13 13 13h106h15q49 0 84.5 -36.5t35.5 -87.5z" />
    <glyph glyph-name="Q" unicode="Q" 
d="M192 48q35 30 35 76v244q0 41 -27 69.5t-66 28.5h-15q-38 0 -65 -28.5t-27 -69.5v-244q0 -35 21 -62t54 -34q7 -1 10 -8q2 -7 -1 -11l-1 -3v-5v-4q0 -8 5 -13.5t13 -5.5q7 0 12 5.5t5 13.5q0 13 14 13q13 0 13 -13q0 -19 -13 -32.5t-31 -13.5q-17 0 -29.5 12t-14.5 29v2
v7v5q-38 12 -61 44.5t-23 73.5v244q0 51 35 87.5t84 36.5h15q49 0 84.5 -36.5t35.5 -87.5v-244q0 -60 -45 -96q-4 -4 -9.5 -3.5t-8.5 4.5q-8 10 1 19z" />
    <glyph glyph-name="R" unicode="R" 
d="M134 206h-44v-28h78q35 0 60.5 -26t25.5 -63v-76q0 -13 -14 -13q-13 0 -13 13v76q0 26 -17 44.5t-42 18.5h-91q-14 0 -14 13v54q0 13 14 13h57q39 0 66 28.5t27 69.5v38q0 41 -27 69.5t-66 28.5h-107v-453q0 -13 -14 -13q-13 0 -13 13v466q0 13 13 13h121
q49 0 84.5 -36.5t35.5 -87.5v-38q0 -51 -35.5 -87.5t-84.5 -36.5z" />
    <glyph glyph-name="S" unicode="S" 
d="M14 153q13 0 13 -14v-10q-2 -25 9 -46q10 -25 32 -39.5t48 -16.5q53 -1 80 24q29 28 31 70v10q2 41 -24.5 71t-64.5 31q-58 0 -93 39t-36 101q2 52 39 88q37 34 99 31q32 -2 59.5 -19.5t41.5 -46.5q7 -12 -5 -18q-13 -6 -18 6q-26 49 -79 51q-52 3 -79 -23
q-30 -27 -32 -70q-1 -44 25 -76t79 -37q49 -1 83 -39t32 -90v-10q-3 -54 -40 -89q-37 -33 -99 -30q-34 1 -62 20t-42 51q-12 28 -11 58v10q2 13 14 13z" />
    <glyph glyph-name="T" unicode="T" 
d="M13 466q-13 0 -13 13t13 13h227q14 0 14 -13v-63q0 -14 -14 -14h-100v-389q0 -13 -13 -13t-13 13v403q0 13 13 13h100v37h-214z" />
    <glyph glyph-name="U" unicode="U" 
d="M139 0h-20q-49 0 -84 36.5t-35 87.5v355q0 13 13 13q14 0 14 -13v-355q0 -40 27 -68.5t65 -28.5h20q38 0 65 28.5t27 68.5v355q0 13 14 13q13 0 13 -13v-355q0 -51 -35 -87.5t-84 -36.5z" />
    <glyph glyph-name="V" unicode="V" 
d="M97 0q-11 0 -13 11l-84 466q-2 13 11 15t15 -11l82 -454h38l81 454q3 13 16 11t11 -15l-84 -466q-2 -11 -13 -11h-60z" />
    <glyph glyph-name="W" unicode="W" 
d="M58 0q-11 0 -13 12l-45 466q-1 5 3 9.5t9 4.5q13 2 15 -12l43 -453h5l69 345q2 11 13 11h15q9 0 13 -11l73 -345h1l44 453q2 14 15 12q12 0 12 -14l-45 -466q-2 -12 -13 -12h-25q-10 0 -13 11l-70 328l-65 -328q-2 -11 -13 -11h-28z" />
    <glyph glyph-name="X" unicode="X" 
d="M227 483q3 9 13 9h63q8 0 11 -5q4 -5 2 -13l-83 -229l64 -228q4 -13 -9 -17h-4q-10 0 -13 10l-64 232q-2 5 0 8l77 216h-35l-160 -457q-4 -9 -13 -9h-63q-7 0 -11 6t-1 12l82 229l-51 229q-3 12 10 16q12 3 16 -10l52 -233q0 -5 -1 -7l-77 -215h35z" />
    <glyph glyph-name="Y" unicode="Y" 
d="M228 483q4 13 17 9q12 -5 8 -17l-164 -466q-4 -9 -13 -9h-63q-7 0 -11 6t-1 12l84 246l-84 210q-2 5 0 10t7 7q13 5 18 -7l86 -215q2 -5 0 -9l-80 -233h35z" />
    <glyph glyph-name="Z" unicode="Z" 
d="M254 468q0 -4 -2 -6l-222 -435h210q14 0 14 -14q0 -13 -14 -13h-227q-13 0 -13 13v10q0 4 1 6l223 437h-211q-13 0 -13 13t13 13h227q14 0 14 -13v-11z" />
    <glyph glyph-name="a" unicode="a" 
d="M10 0q-12 3 -10 16l30 134q2 10 13 10h100l-4 27h-86q-5 0 -10 5t-3 11l50 278q2 11 13 11h60q11 0 13 -11l84 -465q2 -14 -11 -16t-15 11l-82 454h-38l-45 -251h82q11 0 13 -11l8 -54q2 -6 -3 -11q-3 -5 -10 -5h-106l-27 -123q-2 -10 -13 -10h-3z" />
    <glyph glyph-name="b" unicode="b" 
d="M13 302q-13 0 -13 13v164q0 13 13 13h105q43 0 73.5 -32t30.5 -77v-25q0 -45 -28 -74.5t-75 -34.5l-91 -7v-215h91h15q38 0 56 28.5t18 68.5v29q0 40 -25 68q-9 10 0 19q11 9 19 -1q33 -36 33 -86v-29q0 -56 -27.5 -90t-73.5 -34h-15h-105q-13 0 -13 13v241v1v1v1
q1 1 1 2v1q1 0 1 1t1 1v1q1 0 1 1q1 0 1 1h1q1 1 2 1h1l1 1h1h1l103 9q37 4 58 26t21 56v25q0 35 -22.5 59t-54.5 24h-91v-151q0 -13 -14 -13z" />
    <glyph glyph-name="c" unicode="c" 
d="M119 0q-49 0 -84 36.5t-35 87.5v244q0 51 35 87.5t84 36.5h15q49 0 84.5 -36.5t35.5 -87.5q0 -13 -14 -13q-13 0 -13 13q0 41 -27 69.5t-66 28.5h-15q-38 0 -65 -28.5t-27 -69.5v-244q0 -40 27 -68.5t65 -28.5h15q39 0 66 28t27 69q0 14 13 14q14 0 14 -14
q0 -51 -35.5 -87.5t-84.5 -36.5h-15z" />
    <glyph glyph-name="d" unicode="d" 
d="M13 0q-13 0 -13 13v466q0 13 13 13q14 0 14 -13v-452h107q39 0 66 28t27 69v244q0 41 -27 69.5t-66 28.5h-54q-14 0 -14 14q0 13 14 13l55 -1q49 0 84 -36.5t35 -87.5v-244q0 -51 -35.5 -87.5t-84.5 -36.5h-121z" />
    <glyph glyph-name="e" unicode="e" 
d="M13 256q-13 0 -13 14v209q0 13 13 13h227q14 0 14 -13t-14 -13h-213v-183h130q13 0 13 -13v-58q0 -13 -13 -13h-129v-172h212q14 0 14 -14q0 -13 -14 -13h-226q-13 0 -13 13v199q0 14 13 14h129v30h-130z" />
    <glyph glyph-name="f" unicode="f" 
d="M13 259q-13 0 -13 13v207q0 13 13 13h227q14 0 14 -13t-14 -13h-213v-180h130q13 0 13 -14v-60q0 -13 -13 -13h-129v-186q0 -13 -14 -13q-13 0 -13 13v199q0 14 13 14h129v33h-130z" />
    <glyph glyph-name="g" unicode="g" 
d="M119 0q-49 0 -84 36.5t-35 87.5v244q0 51 35 87.5t84 36.5h15q49 0 84.5 -36.5t35.5 -87.5q0 -13 -14 -13q-13 0 -13 13q0 41 -27 69.5t-66 28.5h-15q-38 0 -65 -28.5t-27 -69.5v-244q0 -40 27 -68.5t65 -28.5h15q39 0 66 28t27 69v73h-70q-14 0 -14 13v57q0 14 14 14h83
q14 0 14 -14q0 -13 -14 -13h-70v-30h70q14 0 14 -14v-86q0 -51 -35.5 -87.5t-84.5 -36.5h-15z" />
    <glyph glyph-name="h" unicode="h" 
d="M177 492h63q14 0 14 -13v-466q0 -13 -14 -13q-13 0 -13 13v453h-36v-238q0 -13 -14 -13h-87v-202q0 -13 -14 -13h-63q-13 0 -13 13v466q0 13 13 13q14 0 14 -13v-452h36v201q0 13 13 13h88v238q0 13 13 13z" />
    <glyph glyph-name="i" unicode="i" horiz-adv-x="627" 
d="M27 13q0 -13 -14 -13q-13 0 -13 13v466q0 13 13 13q14 0 14 -13v-466z" />
    <glyph glyph-name="j" unicode="j" 
d="M125 479q0 13 14 13q13 0 13 -13v-355q0 -51 -35 -87.5t-84 -36.5h-20q-13 0 -13 13q0 14 13 14h20q38 0 65 28.5t27 68.5v355z" />
    <glyph glyph-name="k" unicode="k" 
d="M196 483q3 9 13 9h63q7 0 10 -5q5 -6 2 -12l-97 -274l78 -182q5 -13 -7 -18q-1 -1 -5 -1q-9 0 -12 8l-80 187q-3 4 -1 10l93 261h-35l-160 -457q-4 -9 -13 -9h-32q-13 0 -13 13v466q0 13 13 13q14 0 14 -13v-452h9z" />
    <glyph glyph-name="l" unicode="l" 
d="M13 0q-13 0 -13 13v466q0 13 13 13q14 0 14 -13v-452h182q13 0 13 -14q0 -13 -13 -13h-196z" />
    <glyph glyph-name="m" unicode="m" 
d="M13 0q-13 0 -13 13v466q0 13 13 13h25q10 0 12 -10l115 -444l110 444q3 10 13 10h28q14 0 14 -13v-466q0 -13 -14 -13q-13 0 -13 13v453h-4l-113 -456q-3 -10 -13 -10h-15q-10 0 -13 10l-118 456v-453q0 -13 -14 -13z" />
    <glyph glyph-name="n" unicode="n" 
d="M227 27v452q0 13 13 13q14 0 14 -13v-466q0 -13 -14 -13h-31q-9 0 -13 9l-160 457h-9v-453q0 -13 -14 -13q-13 0 -13 13v466q0 13 13 13h32q10 0 13 -9l160 -456h9z" />
    <glyph glyph-name="o" unicode="o" 
d="M227 368q0 13 13 13q14 0 14 -13v-244q0 -51 -35.5 -87.5t-84.5 -36.5h-15q-49 0 -84 36.5t-35 87.5v244q0 51 35 87.5t84 36.5h15q52 0 88 -39q8 -10 -1 -19q-11 -9 -19 1q-28 31 -68 31h-15q-38 0 -65 -28.5t-27 -69.5v-244q0 -40 27 -68.5t65 -28.5h15q39 0 66 28
t27 69v244z" />
    <glyph glyph-name="p" unicode="p" 
d="M254 368v-56q0 -52 -35 -88.5t-85 -36.5h-45q-13 0 -13 13q0 14 13 14h45q39 0 66 28.5t27 69.5v56q0 41 -27 69.5t-66 28.5h-15h-92v-453q0 -13 -14 -13q-13 0 -13 13v466q0 13 13 13h106h15q49 0 84.5 -36.5t35.5 -87.5z" />
    <glyph glyph-name="q" unicode="q" 
d="M192 48q35 30 35 76v244q0 41 -27 69.5t-66 28.5h-15q-38 0 -65 -28.5t-27 -69.5v-244q0 -35 21 -62t54 -34q7 -1 10 -8q2 -7 -1 -11l-1 -3v-5v-4q0 -8 5 -13.5t13 -5.5q7 0 12 5.5t5 13.5q0 13 14 13q13 0 13 -13q0 -19 -13 -32.5t-31 -13.5q-17 0 -29.5 12t-14.5 29v2
v7v5q-38 12 -61 44.5t-23 73.5v244q0 51 35 87.5t84 36.5h15q49 0 84.5 -36.5t35.5 -87.5v-244q0 -60 -45 -96q-4 -4 -9.5 -3.5t-8.5 4.5q-8 10 1 19z" />
    <glyph glyph-name="r" unicode="r" 
d="M134 206h-44v-28h78q35 0 60.5 -26t25.5 -63v-76q0 -13 -14 -13q-13 0 -13 13v76q0 26 -17 44.5t-42 18.5h-91q-14 0 -14 13v54q0 13 14 13h57q39 0 66 28.5t27 69.5v38q0 41 -27 69.5t-66 28.5h-107v-453q0 -13 -14 -13q-13 0 -13 13v466q0 13 13 13h121
q49 0 84.5 -36.5t35.5 -87.5v-38q0 -51 -35.5 -87.5t-84.5 -36.5z" />
    <glyph glyph-name="s" unicode="s" 
d="M14 153q13 0 13 -14v-10q-2 -25 9 -46q10 -25 32 -39.5t48 -16.5q53 -1 80 24q29 28 31 70v10q2 41 -24.5 71t-64.5 31q-58 0 -93 39t-36 101q2 52 39 88q37 34 99 31q32 -2 59.5 -19.5t41.5 -46.5q7 -12 -5 -18q-13 -6 -18 6q-26 49 -79 51q-52 3 -79 -23
q-30 -27 -32 -70q-1 -44 25 -76t79 -37q49 -1 83 -39t32 -90v-10q-3 -54 -40 -89q-37 -33 -99 -30q-34 1 -62 20t-42 51q-12 28 -11 58v10q2 13 14 13z" />
    <glyph glyph-name="t" unicode="t" 
d="M13 466q-13 0 -13 13t13 13h227q14 0 14 -13v-63q0 -14 -14 -14h-100v-389q0 -13 -13 -13t-13 13v403q0 13 13 13h100v37h-214z" />
    <glyph glyph-name="u" unicode="u" 
d="M139 0h-20q-49 0 -84 36.5t-35 87.5v355q0 13 13 13q14 0 14 -13v-355q0 -40 27 -68.5t65 -28.5h20q38 0 65 28.5t27 68.5v355q0 13 14 13q13 0 13 -13v-355q0 -51 -35 -87.5t-84 -36.5z" />
    <glyph glyph-name="v" unicode="v" 
d="M97 0q-11 0 -13 11l-84 466q-2 13 11 15t15 -11l82 -454h38l81 454q3 13 16 11t11 -15l-84 -466q-2 -11 -13 -11h-60z" />
    <glyph glyph-name="w" unicode="w" 
d="M58 0q-11 0 -13 12l-45 466q-1 5 3 9.5t9 4.5q13 2 15 -12l43 -453h5l69 345q2 11 13 11h15q9 0 13 -11l73 -345h1l44 453q2 14 15 12q12 0 12 -14l-45 -466q-2 -12 -13 -12h-25q-10 0 -13 11l-70 328l-65 -328q-2 -11 -13 -11h-28z" />
    <glyph glyph-name="x" unicode="x" 
d="M227 483q3 9 13 9h63q8 0 11 -5q4 -5 2 -13l-83 -229l64 -228q4 -13 -9 -17h-4q-10 0 -13 10l-64 232q-2 5 0 8l77 216h-35l-160 -457q-4 -9 -13 -9h-63q-7 0 -11 6t-1 12l82 229l-51 229q-3 12 10 16q12 3 16 -10l52 -233q0 -5 -1 -7l-77 -215h35z" />
    <glyph glyph-name="y" unicode="y" 
d="M228 483q4 13 17 9q12 -5 8 -17l-164 -466q-4 -9 -13 -9h-63q-7 0 -11 6t-1 12l84 246l-84 210q-2 5 0 10t7 7q13 5 18 -7l86 -215q2 -5 0 -9l-80 -233h35z" />
    <glyph glyph-name="z" unicode="z" 
d="M254 468q0 -4 -2 -6l-222 -435h210q14 0 14 -14q0 -13 -14 -13h-227q-13 0 -13 13v10q0 4 1 6l223 437h-211q-13 0 -13 13t13 13h227q14 0 14 -13v-11z" />
  </font>
</defs>
</svg>
